<svg width="580" height="400" xmlns="http://www.w3.org/2000/svg" style="">
 <!-- Created with Method Draw - http://github.com/duopixel/Method-Draw/ -->
 <g>
  <title>background</title>
  <path fill="#fff" id="canvas_background" height="402" width="582" d="M-1 -1 L581 -1 L581 401 L-1 401 Z" class="xwgdzcdq_0"></path>
  <g display="none" overflow="visible" y="0" x="0" height="100%" width="100%" id="canvasGrid">
   <path fill="url(#gridpattern)" stroke-width="0" height="100%" width="100%" d="M0 0 L100 0 L100 100 L0 100 Z" class="xwgdzcdq_1"></path>
  </g>
 </g>
 <g>
  <title>Layer 1</title>
  <path stroke="#000" id="svg_1" d="m134.21233,111.951979c-1.635273,0 -2.475802,-1.331682 -2.475802,-2.928608c0,-1.331373 0.420201,-2.623985 1.635273,-2.623985c0.840529,0 2.105837,1.292612 2.526037,2.623985c0.840529,1.938454 0,2.928608 -1.685509,2.928608zm279.532708,75.984121c3.741237,0 4.581638,0.341528 2.475802,2.623676c-1.215072,1.596926 -3.741109,2.928299 -4.956182,2.928299c-1.265181,0 -2.526037,-1.331373 -2.526037,-2.928299c0,-1.636099 1.685636,-2.623676 5.006417,-2.623676zm-261.197126,-92.945697c-3.741109,-0.646151 -4.161437,-3.918143 0,-4.906029c2.105709,-0.304211 3.320909,0.646048 3.320909,2.623985c0,1.635893 -1.215199,2.586564 -3.320909,2.282044zm-46.633764,103.364836c5.006417,-0.950774 5.006417,-1.63414 3.320909,-3.879073c-1.260857,-1.63414 -1.681057,-3.611871 -0.840529,-4.258125c0.420201,-0.989638 2.526037,0 3.741109,1.93866c1.685509,2.623985 2.946238,2.967575 6.267147,1.331373c2.060179,-0.987783 3.741109,-1.635687 3.741109,-0.646048c0,0.646048 1.265308,0 2.900581,-1.331373c2.526165,-1.93866 2.946365,-6.198538 0.420328,-8.480788c-2.055601,-1.93866 -12.488636,-1.292406 -15.389217,0.987783c-1.681057,1.636202 -2.946365,1.294468 -4.581638,-1.633831c-2.526037,-4.869021 -2.526037,-5.552593 3.320782,-5.856803c5.006417,0 5.006417,0 0.840529,-1.97773c-2.101258,-0.950774 -4.16131,-2.928299 -4.16131,-4.220911c0,-3.271786 5.801162,-5.210446 8.327199,-2.928195c0.840529,0.950568 2.475929,1.93866 4.161437,1.93866c3.320909,0 19.175984,-11.065806 19.175984,-13.348056c0,-0.989535 1.639851,-1.635584 3.320909,-0.989535c2.060052,0.343487 5.801289,-0.646048 9.592634,-2.28225c5.376382,-2.623779 5.376382,-2.928299 2.475802,-7.186424c-2.055601,-2.928299 -4.581638,-3.918143 -10.428584,-3.918143c-6.64169,0 -8.327199,0.646358 -10.3828,4.564501c-0.845107,2.623676 -3.371017,4.562439 -5.006417,4.562439c-2.900581,0 -3.741109,-2.926546 -0.840529,-4.562439c1.260729,-0.646358 2.101258,-2.928299 2.101258,-5.210549c0,-3.574759 -0.840529,-4.220911 -6.267147,-3.270033c-5.426618,0.646048 -5.426618,0.341528 -4.161437,-4.564707c0.840529,-2.928195 2.055601,-5.551974 2.900708,-5.856494c0.840529,-0.341528 1.68093,-3.270033 1.68093,-6.198332c0,-5.857113 2.48038,-6.844895 7.066597,-2.623985c2.101131,2.282147 3.366566,2.623985 4.16131,0.646048c0.840529,-1.292406 3.786767,-1.596926 8.372984,-0.950877c6.221489,1.292612 6.64169,0.950877 5.801162,-2.928299c-0.420201,-2.281941 -0.84498,-4.905926 -1.265181,-5.551974c0,-0.988092 -2.055601,-2.28225 -4.535981,-3.270342c-5.006417,-1.635584 -6.267147,-5.551974 -1.685509,-5.551974c1.265308,0 2.480253,-0.646358 2.480253,-1.940722c0,-0.988092 2.526165,-1.63414 5.846946,-1.331579c4.586217,0.343487 7.062018,-0.950362 13.329165,-7.794948c4.586217,-4.906235 7.906998,-7.530014 8.327326,-6.198641c0.420201,1.63414 2.526037,2.584709 4.586089,2.584709c3.320909,0 3.741237,-0.950568 2.526165,-5.208693c-0.424779,-2.928505 -2.526165,-6.502852 -3.791345,-8.139054c-3.741237,-3.613314 -3.741237,-7.834224 0,-6.542128c2.946238,1.294468 12.113966,-2.280189 12.113966,-4.562336c0,-0.989638 1.219651,-1.635893 2.900581,-1.635893c1.685636,0 2.48038,1.977627 2.48038,4.564398c0,3.270033 0.840529,4.562645 2.946365,3.611768c1.635273,-0.683469 2.900708,-2.623985 2.900708,-3.916287c0,-3.918349 13.329038,-10.763038 16.649819,-8.822626c1.265435,0.646564 2.526037,0 2.951071,-2.281941c1.214945,-4.564398 8.742821,-8.139054 12.063603,-5.856803c1.685636,0.950568 3.321036,0.646358 3.745815,-0.341528c0.840402,-1.294364 4.16131,-2.28225 7.90242,-2.586976c3.741109,-0.341528 8.747527,-1.635893 10.853364,-2.967266c7.90242,-4.220911 15.809545,-3.916391 19.130327,0.648316c2.105837,3.269827 2.946238,3.269827 2.946238,0.987577c0,-2.928505 1.639978,-3.270033 11.648235,-2.281941c15.855202,1.294364 18.335582,1.294364 24.182529,-0.341838c3.741109,-0.950774 5.00629,-0.646254 5.00629,1.977421c0,1.636202 1.215199,2.928608 2.900708,2.928608c1.260729,0 2.475802,-0.950877 2.475802,-1.940516c0,-2.623676 6.692053,-3.916287 12.538872,-2.623676c4.535981,1.294364 4.956182,1.635584 3.741109,10.420892c-0.420201,5.247763 0,8.822419 0.794871,8.822419c0.840402,0 1.685509,-2.28225 1.685509,-5.552283c0,-5.515069 4.581638,-7.795464 6.267147,-3.270136c0.420328,1.634243 1.635273,0.987886 2.475802,-1.596823c2.105964,-6.846648 6.692053,-3.272095 5.426618,4.220911c-1.260602,6.198332 -1.260602,6.198332 2.480507,3.916081c2.105709,-0.987886 3.740982,-3.574347 3.740982,-5.208693c0,-1.635996 1.265435,-3.576409 2.946493,-4.259981c3.320654,-1.292097 7.066469,3.612077 5.846819,7.188176c-0.420201,1.63445 -0.420201,2.928505 0.794744,2.928505c0.845107,0 1.685636,-0.950568 1.685636,-1.635893c0,-0.950774 2.060052,-1.292612 4.586089,-0.646048c5.422167,0.987886 6.216911,3.611561 1.6354,5.208487c-1.215072,0.685325 -2.48038,2.28225 -2.48038,3.613829c0,2.28225 0.84498,2.28225 5.426618,0c7.482219,-3.916287 10.803,-3.613829 12.068436,0.646048c0.840402,2.28225 2.480253,3.271889 4.16131,2.28225c1.685509,-0.341734 5.426618,0.989638 8.327326,3.270033c2.526037,1.940413 6.267147,3.574656 7.952656,3.574656c2.48038,0 2.48038,1.636099 1.635273,6.20029c-0.840402,4.906235 -0.840402,5.552283 1.685636,3.574862c3.320782,-3.233128 4.581638,-2.928814 5.801289,1.633831c0.420201,2.28225 3.366439,3.918143 6.687348,4.906029c3.741109,0.648316 5.801289,2.282147 5.801289,4.222663c0,1.977627 1.260602,4.258125 2.526037,5.55249c3.320909,2.281941 2.475802,9.12663 -1.265435,11.408777c-1.260602,0.683572 -2.900454,0.341838 -3.320782,-0.646048c-0.840402,-0.989844 -3.741109,-0.989844 -9.167855,0c-8.747527,2.280189 -10.3828,2.928299 -8.327199,5.893812c1.265308,1.93866 15.813996,1.292612 23.762201,-0.989638c2.48038,-0.987989 3.320909,0 3.320909,4.564501c0,3.269827 -0.840529,5.856803 -2.101258,5.856803c-0.845107,0 -1.639851,0.987783 -1.639851,2.623676c0,3.917937 2.060179,3.574347 7.486797,-0.988092c2.896002,-2.623676 4.581511,-3.271786 6.64169,-1.635584c2.101258,1.635584 2.526037,1.635584 2.526037,-0.988092c0,-1.598884 -0.845107,-2.928299 -2.105709,-2.928299c-0.794871,0 -1.639978,-1.294364 -1.639978,-2.586976c0,-1.635687 1.219651,-2.928299 2.900581,-2.928299c1.265308,0 2.946365,0.646048 2.946365,1.596926c0,0.990051 1.639851,2.282147 3.745688,2.623985c2.896129,0.989844 3.741109,2.28225 3.320782,6.198538c-0.84498,7.49249 0.840656,9.774946 7.062018,8.482541c2.946365,-0.648316 4.581511,0 3.320909,1.292406c-0.374543,0.646048 0,2.28225 0.840529,2.965307c3.371017,1.940619 2.105709,6.503367 -1.6354,6.503367c-4.586089,0 -5.846946,1.635584 -3.366439,4.564191c1.68093,1.635893 2.946238,1.93866 4.581511,0.646254c3.791345,-3.270033 4.586217,-0.646254 5.006417,12.398931c0,6.53986 0.840529,11.750615 1.681057,11.750615c2.060052,0 1.265308,7.188176 -1.681057,10.116475c-1.639851,1.63414 -1.639851,3.230963 -0.420201,4.562336c2.946238,2.928608 0,11.409396 -3.745815,11.409396c-3.320654,0 -9.587928,6.198332 -9.587928,9.126836c0,3.576615 -5.376382,0 -6.64169,-3.916391c-1.260729,-3.574553 -1.260729,-3.574553 -2.105837,-0.989638c-0.794744,2.967369 3.745688,12.094205 7.532582,14.680666c2.480253,1.977937 -2.105837,5.247763 -5.426745,3.916391c-1.685636,-0.646048 -2.48038,-2.584709 -2.48038,-4.562439c0,-5.551974 -10.428584,-19.548037 -18.335582,-24.795594c-4.206968,-2.586976 -7.948204,-5.515275 -7.948204,-6.503058c0,-1.97773 -13.333616,-8.139054 -20.815835,-10.116681c-4.166016,-0.989638 -5.426745,-0.646151 -5.426745,1.977627c0,1.93866 -0.794744,2.584709 -2.48038,1.93866c-3.741109,-1.292612 -5.426618,1.636202 -2.105709,4.564501c4.586089,3.574553 3.791345,7.834224 -1.215072,6.198332c-3.366566,-0.987886 -3.786894,-0.646358 -2.526037,4.906132c0.420201,3.232819 1.265308,7.49249 1.265308,9.43115c0,1.97773 0.840402,3.270342 1.68093,3.270342c1.219778,0 1.639851,-0.646358 0.794871,-1.63414c-0.420201,-0.989844 0.424906,-1.940516 2.105709,-1.940516c1.265435,0 2.48038,1.294158 2.48038,2.586564c0,1.331579 -1.639724,2.623676 -4.586089,2.282456c-2.475802,0 -4.581638,-0.950877 -4.581638,-1.597132c0,-2.967575 -11.227907,-23.16166 -14.548688,-26.127173c-3.741237,-3.233128 -1.260857,-4.220911 -30.824346,11.104464c-4.581511,2.28225 -9.587928,7.188176 -12.113966,10.763038c-2.060179,3.574347 -5.380961,7.188176 -7.062018,7.834224c-1.685509,0.646358 -7.906998,5.856803 -13.333743,11.409087c-23.342,24.452004 -19.550655,27.380509 -17.915254,77.3157c7.066469,37.838821 7.066469,37.838821 7.066469,37.838821c-16.654525,0 -16.654525,0 -16.654525,0c-13.749366,0 -13.749366,0 -13.749366,0c1.260729,-34.912481 1.260729,-34.912481 1.260729,-34.912481c0.840402,-2.92634 1.265308,-8.82211 1.685636,-12.092453c0.420201,-1.940413 -11.693892,-10.421201 -11.273564,-12.359655c0,-1.635893 12.534294,2.928608 12.534294,1.292406c2.060052,-23.805956 0,-42.745056 -5.426745,-52.82442c-1.260729,-6.198641 -11.693765,-26.125215 -13.329038,-26.125215c-0.420328,0 -3.366566,-1.940413 -6.267147,-4.222663c-5.006545,-4.257919 -7.062018,-4.562645 -34.990235,-5.856803c-29.98369,-1.32962 -29.98369,-1.32962 -29.98369,-1.32962c-7.107676,4.562645 -7.107676,4.562645 -7.107676,4.562645c-4.16131,2.967266 -8.327199,4.906029 -9.542398,4.906029c-2.526037,0 -12.959073,6.846339 -17.495054,10.76242c-0.420201,0 -0.840402,-0.341219 -0.840402,-0.646048c-0.420328,0 -0.420328,0 -0.420328,-0.341734c-0.420201,-0.950568 -0.84498,-1.940413 -1.685509,-2.928299c2.526037,-1.635893 4.586089,-2.625531 5.426618,-2.281941c1.260729,0.646048 2.48038,0 2.48038,-1.636202c0,-1.63414 -2.48038,-2.282147 -9.12207,-1.63414c-7.952783,0.988092 -10.012835,1.32962 -11.273564,5.208796c-2.060179,1.977627 -2.48038,4.906132 -1.260729,7.188382c-0.424906,2.928299 -0.424906,4.905926 0,4.905926c0.420201,0 0.840402,-0.646048 2.101258,-1.331373c0,0.341838 0.420201,0.685325 0.84498,0.989638c-4.165889,0.987886 -6.271725,3.916391 -5.846946,6.844689c-2.105709,1.331373 -4.165889,1.977627 -6.691799,2.965513c0,0 0,-0.341528 -0.374671,-0.341528c1.639851,-2.928299 2.48038,-6.198641 2.900581,-11.104567c0.845107,-5.515275 0.420201,-9.126836 -0.840402,-9.126836c-0.840529,0 -1.685509,1.331373 -1.685509,3.269724c0.420074,1.636202 -0.374671,3.270342 -2.055728,3.574862c-1.265308,0.341528 -2.105709,-0.30452 -2.105709,-1.93866c0,-3.918143 -1.6354,-3.918143 -5.381088,-0.343487c-1.68093,1.331373 -5.001839,2.928505 -7.90242,3.613829c-3.791345,0.950568 -5.006417,0.304211 -6.691926,-3.270342c-1.260729,-2.928299 -2.101258,-6.20029 -1.260729,-7.492696c0.420201,-1.635893 0.420201,-2.965513 -1.215072,-2.965513c-4.586217,0 -1.265308,-5.210755 4.16131,-6.200393zm35.830636,-74.994483c-2.526037,-0.341528 -4.586217,-1.292406 -5.426618,-2.623779c-0.420328,-1.940413 -0.840529,-1.940413 -0.840529,0c0,1.331373 -1.685509,2.28225 -3.320909,2.623779c-2.946238,0 -2.946238,0.341734 0.420328,1.636202c2.055474,0.646048 4.16131,1.633831 4.581511,1.633831c0.374543,0 2.48038,-0.987783 4.586217,-1.633831c3.741109,-1.636202 3.741109,-1.636202 0,-1.636202zm330.327782,52.5199c0.794871,0.646358 1.6354,-0.343487 1.6354,-1.977627c0,-1.294158 -0.840529,-2.58677 -1.6354,-2.58677c-1.265181,0 -2.105709,0.646254 -2.105709,1.596926c0,0.989844 0.840529,2.321217 2.105709,2.967472zm-2.946238,2.928505c-0.420201,-0.989844 -2.48038,-2.282147 -4.165889,-2.282147c-1.215072,0 -2.055601,1.292303 -1.215072,2.282147c0.374543,0.987886 2.060052,1.634243 3.741109,1.634243c1.639851,0 2.060052,-0.646358 1.639851,-1.634243zm-3.741109,14.678914c1.260729,0 2.946238,-0.341528 2.946238,-0.646048c0,-0.685325 -1.685509,-1.331373 -2.946238,-1.97773c-1.639851,-0.646254 -2.900708,-0.30452 -2.900708,0.646358c0,0.989638 1.260857,1.977421 2.900708,1.977421zm3.320909,-30.993926c1.68093,-0.646564 2.52591,-1.636099 2.101258,-2.586976c-1.260857,-2.319156 -8.322875,-2.319156 -8.322875,0c0,2.586976 2.475929,3.574862 6.221617,2.586976zm-22.876014,-24.454272c-2.105837,0.989844 -3.366566,2.928505 -2.946493,3.918143c2.105837,2.585018 4.586344,1.93866 6.687475,-2.28225c2.060179,-3.918143 1.219651,-4.564191 -3.740982,-1.635893zm-7.952783,50.237752c10.853236,8.784999 11.273564,9.126836 11.273564,6.198538c0,-1.63414 -0.840529,-2.965513 -2.105837,-2.965513c-1.214945,0 -3.320782,-1.636202 -4.581511,-3.574553c-1.215199,-1.940722 -3.741109,-3.918452 -5.801289,-3.918452c-3.786767,0 -3.786767,0.34359 1.215072,4.259981zm-8.743076,-15.364444c2.521586,0 3.741237,-0.646048 2.101385,-0.950671c-1.260729,-0.646254 -3.320909,-0.646254 -4.581638,0c-1.265435,0.304623 0,0.950671 2.480253,0.950671zm-12.068308,-44.341982c1.260729,0.988092 5.001839,2.280498 8.32262,2.928608c5.847073,0.987783 6.267274,0.987783 2.946365,-1.635893c-3.786767,-3.233128 -14.169567,-4.220911 -11.268986,-1.292715zm-25.402179,-54.116516c-1.260729,0.950568 -1.68093,2.928299 -1.260729,4.220601c0.840529,2.623985 3.320909,0.341838 3.320909,-3.574553c0,-1.97773 -0.420328,-2.28225 -2.060179,-0.646048zm12.488636,70.431838c3.320909,1.633934 4.586217,1.633934 6.271853,-0.64811c3.320782,-3.574759 1.214945,-5.208693 -5.006545,-2.928195c-5.006417,1.598678 -5.006417,1.598678 -1.265308,3.576305zm-8.32262,-16.315322c6.267147,-3.574244 6.267147,-3.574244 1.260729,-3.574244c-3.366566,0 -5.846946,1.292097 -7.107676,3.574244c-0.794871,2.280498 -1.639851,3.574862 -1.219651,3.574862c0,0 3.320909,-1.940619 7.066597,-3.574862zm-9.167855,52.861737c2.896002,3.574862 7.902547,3.574862 6.267147,-0.341734c-0.420201,-1.294158 -0.84498,-2.928299 -0.84498,-3.271889c0,-0.30452 -1.681057,-0.30452 -3.741109,0.34359c-3.366566,0.646254 -3.366566,1.63414 -1.681057,3.270033zm-12.913416,-13.386714c3.320782,3.574759 5.006417,3.916287 8.747527,1.292612c2.48038,-1.63414 2.48038,-1.63414 0,-1.93866c-1.260729,0 -4.581638,-0.34359 -7.482219,-0.989844c-4.165889,-1.292406 -4.165889,-1.292406 -1.265308,1.635893zm-0.420201,-35.558633c2.105709,0 4.586089,-5.210446 3.320909,-6.844586c-1.6354,-1.635893 -5.001966,0.987783 -5.001966,3.916287c0,1.635996 0.840529,2.928299 1.681057,2.928299zm-20.391183,22.171816c-2.526037,1.331373 -2.105709,1.636202 1.215199,1.636202c2.105709,0 4.581511,-0.648316 5.426618,-1.636202c1.260602,-2.586461 -2.900708,-2.586461 -6.641817,0zm0.420328,28.712191c0.374543,0.34359 1.635273,-0.341734 2.900581,-1.93866c1.260602,-1.331373 5.001966,-2.967266 7.90242,-3.613623c3.741109,-0.988092 5.426745,-2.584915 5.426745,-4.906132c0,-5.513007 -5.846946,-3.879176 -12.068563,3.271992c-2.52591,3.611871 -4.581511,6.540375 -4.161183,7.186424zm-4.586089,-15.020854c3.740982,-3.574347 3.740982,-4.222663 0.794617,-5.210549c-3.320782,-1.292612 -5.796583,1.636202 -5.796583,6.844689c-0.424779,3.918143 -0.424779,3.918143 5.001966,-1.63414zm-6.687475,-38.486828c0.420201,2.623676 1.260729,2.282147 3.740982,-2.58677c2.946493,-5.208796 2.946493,-5.894121 0.420328,-5.894121c-1.635273,0 -3.320909,0.988092 -3.741109,2.624088c-0.840529,1.292303 -0.840529,4.259878 -0.420201,5.856803zm-2.060179,-26.734564c0,1.32962 0.794744,4.562645 1.639851,6.844689c1.260729,4.564398 1.260729,4.564398 2.526037,0.646254c1.635273,-3.916081 0,-9.772885 -2.526037,-9.772885c-1.219651,0 -1.639851,0.987577 -1.639851,2.281941zm-29.184367,10.760977c-2.060052,2.28225 -2.060052,4.564501 -0.424779,11.409087c0.845107,4.906029 2.950944,9.812161 4.165889,10.763038c2.105837,1.635893 2.526037,0 2.946238,-10.114928c0,-12.359964 -2.105709,-16.277798 -6.687348,-12.057197zm3.741109,34.570747c0.420328,0.646358 1.260729,-0.646254 0.840529,-2.586667c0,-1.97773 -0.420201,-2.28225 -1.260729,-0.987886c-0.374671,1.292406 -0.374671,2.928299 0.420201,3.574553zm15.014674,-30.652604c-0.420201,0.646358 -0.420201,5.210755 0.840529,10.114928c1.265308,8.482541 1.639851,8.824069 2.060179,2.625531c0.420201,-10.116681 -0.420328,-15.022607 -2.900708,-12.740459zm-14.174145,91.994923c2.526037,-3.918143 6.687475,-10.458518 9.588056,-14.376352c3.320782,-4.22122 5.426618,-9.773194 6.267147,-15.325477c1.219651,-8.785308 1.219651,-8.785308 1.219651,-8.785308c-5.006417,4.868917 -5.006417,4.868917 -5.006417,4.868917c-2.48038,2.623985 -4.161437,5.552283 -4.161437,6.540375c0,2.586564 -7.906998,18.901577 -10.387378,21.830081c-1.260729,1.633831 -3.366566,5.247763 -3.741109,7.834224c-2.105837,7.49115 1.639851,6.198538 6.221489,-2.586461zm-29.563489,33.580902c1.265308,6.502852 1.265308,6.502852 5.426745,-7.492799c2.48038,-7.530117 6.221489,-19.585045 8.747527,-27.077948c3.320782,-9.468674 4.586089,-17.302898 4.586089,-28.370147c0,-14.374909 -0.424779,-14.679429 -3.745561,-13.043227c-7.528004,4.220807 -11.693892,15.971422 -13.37495,38.789286c-0.794744,11.752883 -1.639851,23.503498 -2.480253,26.090268c-0.420328,2.623779 0,7.529911 0.840402,11.104567zm0.845107,-83.477126c1.635273,3.233025 3.320909,5.856803 3.320909,5.856803c0.420201,0 2.475674,-1.97773 4.16131,-4.564191c2.105709,-2.280395 5.426618,-4.904173 6.687475,-5.855051c4.960633,-2.967266 6.221362,-12.094102 2.060052,-18.29264c-3.320909,-5.552283 -12.488636,-11.752677 -14.174272,-9.774946c-0.840402,0.646254 -2.055474,6.846648 -2.900581,14.033071c-1.68093,10.762729 -1.68093,14.034515 0.845107,18.596953zm-2.526037,-74.691509c0.840529,0.64811 1.68093,0.30452 1.68093,-0.683263c0,-1.294364 -0.840402,-2.586976 -1.68093,-3.233128c-1.265308,-0.685221 -2.060179,-0.341734 -2.060179,0.950877c0,0.987886 0.794871,2.28225 2.060179,2.965513zm-134.949561,87.697522c5.801162,0.343487 5.801162,0.343487 5.801162,0.343487c5.846946,0 11.693892,-4.222663 11.693892,-7.834224c0,-2.28225 -0.420201,-2.28225 -17.495054,7.490737zm2.48038,-9.126939c0,0.990154 0.840529,1.97773 2.105837,1.97773c2.055601,0 7.90242,-5.856803 6.64169,-6.844586c-1.265308,-1.331373 -8.747527,2.928195 -8.747527,4.866856zm4.586089,-22.476026c6.267274,6.504604 9.167855,7.150858 12.488636,2.928195c3.366566,-3.916081 0.420328,-6.540066 -9.592507,-7.490944c-8.322748,-0.989844 -8.322748,-0.989844 -2.896129,4.562748zm-4.586089,-18.29099c0,0.683263 2.946238,2.280189 6.267147,3.611561c15.389344,6.198641 18.335582,6.198641 17.915254,0.304829c0,-3.574862 -6.267147,-11.409293 -8.747527,-11.409293c-2.946238,0 -15.434874,6.198538 -15.434874,7.492902zm22.501471,46.319609c4.581638,0 5.001839,-0.988092 1.260729,-2.585018c-1.685509,-0.343487 -3.320909,0 -3.741109,0.950877c-0.845107,0.987577 0.420201,1.63414 2.48038,1.63414zm3.320909,-76.630479c-2.900708,-1.636099 -6.646396,-2.282147 -8.327326,-1.636099c-2.900581,1.294364 -2.48038,1.636099 1.68093,2.623676c2.060179,0.648316 6.271853,1.294468 8.327326,1.598988c2.48038,0 2.48038,-0.64811 -1.68093,-2.586564zm-0.374543,11.750615c2.475674,0 2.900581,-0.341734 1.215072,-1.32962c-1.215072,-0.304314 -2.900708,-0.304314 -3.741237,0.341838c-0.420201,0.646048 0.840529,1.292612 2.526165,0.987783zm2.475674,7.493005c-5.846819,0 -5.846819,0.304211 -2.475674,2.928195c4.16131,2.928299 5.376382,3.269827 7.062018,1.292406c2.900454,-2.585018 0.840402,-4.220601 -4.586344,-4.220601zm8.327453,-36.851245c-1.685636,-1.635893 -2.105837,1.292612 -1.260857,4.867165c0.420201,2.28225 2.101258,4.259671 2.946365,4.259671c1.635273,0 0.420201,-7.188176 -1.685509,-9.126836zm13.329038,43.049267c-0.840402,0.304829 1.265308,2.28225 3.745688,3.918349c2.526037,1.63414 4.581511,2.280292 4.581511,1.292406c0,-2.281941 -7.061891,-6.541819 -8.327199,-5.210755zm-10.428584,2.28225c-3.741109,2.282456 -1.635273,8.138951 3.786894,9.127043c2.900581,0.646151 7.486797,3.270136 10.387378,5.856597c2.526037,2.623985 4.581511,3.613829 4.581511,2.623985c0,-3.270033 -16.649947,-18.938997 -18.755783,-17.607624zm17.074853,27.078257c-2.480253,-5.249722 -5.380961,-7.83474 -10.807706,-9.470633c-4.16131,-1.292406 -8.327199,-1.977421 -9.587928,-1.633934c-1.265308,0.341528 3.741109,4.562439 10.853364,9.468468c13.329038,8.480788 13.329038,8.480788 9.542271,1.636099zm22.122349,-50.237959c-0.840529,0 -1.685636,1.292612 -1.685636,2.585018c0,1.635893 0.845107,2.623985 1.685636,2.623985c1.215072,0 2.060179,-0.988092 2.060179,-2.623985c0,-1.292406 -0.845107,-2.585018 -2.060179,-2.585018zm-3.786767,26.734564c0,2.281941 7.107676,0.646254 10.008256,-2.28225c4.161437,-4.905926 3.741109,-6.198538 -1.685509,-6.198538c-3.741109,0 -8.322748,4.564604 -8.322748,8.480788zm12.114093,-70.432147c-1.265308,4.220911 -2.105837,7.795464 -1.685509,8.139054c1.265181,1.292612 4.586217,-8.480582 4.586217,-12.398725c0,-1.63414 -1.265435,0.34359 -2.900708,4.259671zm21.656491,65.867646c-2.105837,0 -3.741237,0.648316 -3.741237,1.940413c0,0.988092 1.215072,1.636202 2.475802,1.636202c1.685509,0 3.320909,-0.64811 3.745688,-1.636202c0.840529,-1.292097 -0.424779,-1.940413 -2.480253,-1.940413zm-5.006545,61.305001c2.48038,5.895873 6.221489,11.409087 8.327326,12.740459c2.105837,0.988092 6.267147,5.55249 8.747527,10.116681c2.48038,4.562645 5.006417,8.137301 5.426745,8.137301c2.055474,0 -2.105837,-30.004597 -5.006417,-39.133186c-2.526165,-7.832472 -3.321036,-15.020854 -2.900708,-26.429941c0.374543,-8.480582 0,-15.973484 -0.840402,-16.619635c-0.420328,-0.646254 -3.320909,-0.646254 -5.846946,0c-4.586217,1.292406 -5.006417,2.28225 -5.006417,9.470426c0,5.513316 -0.840656,8.480788 -2.900708,9.772885c-5.846819,2.928608 -5.426618,19.54814 0,31.94501zm-12.068308,-43.695521c-0.840529,-4.906029 -1.68093,-5.552283 -6.267147,-5.552283c-5.426745,0 -5.426745,0.341734 -5.006417,7.186424c0,4.222663 0.84498,9.128589 1.265181,11.408984c0.420328,2.28225 2.060179,4.564191 3.741237,4.906029c3.320782,1.636099 7.061891,-9.772885 6.267147,-17.949153zm-6.267147,32.932792c-3.741237,-3.916391 -6.267147,-8.137301 -6.641817,-9.126836c0,-1.292406 -2.105709,-4.562439 -4.581638,-7.490944c-2.526037,-2.928299 -5.426618,-6.541922 -6.691926,-7.834534c-4.16131,-4.564191 -3.320909,-0.646048 1.265308,9.468674c2.900581,6.846339 7.902547,13.044979 13.749366,18.255425c10.807579,8.822316 12.068436,7.186733 2.900708,-3.271786zm-6.641817,16.010492c4.535981,0 4.161437,-0.341528 -2.105709,-5.551974c-4.161437,-3.270342 -7.062018,-6.844895 -7.062018,-8.480891c0,-1.292303 -5.426745,-5.894018 -11.693765,-10.114928c-6.221617,-4.259568 -12.068563,-8.480479 -12.908964,-9.774637c-0.845107,-1.63414 -1.265308,-1.63414 -1.265308,0.30452c0,1.97773 -2.055601,2.281941 -8.747527,1.292406c-4.581638,-0.646358 -8.322748,-0.646358 -8.322748,-0.302767c0,0.646254 1.68093,4.562645 3.366566,8.480479c2.900708,6.503161 4.16131,7.83474 13.329165,10.419551c5.801289,1.635893 14.968889,5.55218 20.815835,8.480479c5.426745,2.967575 12.068436,5.247763 14.594473,5.247763zm-65.019455,11.067249c1.685509,0 4.165889,-0.646048 5.846819,-1.635584c2.900708,-2.280498 0.424906,-2.280498 -5.001839,0c-2.48038,0.989535 -2.900581,1.294055 -0.84498,1.635584zm-4.581638,-8.138951c4.161437,-1.329414 17.495054,-2.623779 29.609147,-2.623779c22.871563,-0.30452 27.457653,-1.292097 18.289798,-3.270033c-2.900454,-0.646048 -9.542271,-2.28225 -14.968889,-3.916391c-9.588056,-2.928299 -29.188946,-1.940413 -31.244547,1.32993c-0.424779,0.647801 -2.526037,0.989535 -4.586089,0.647801c-4.161437,-0.989638 -8.327326,1.634346 -9.588056,6.844895c-1.685509,4.220601 1.260729,4.564191 12.488636,0.987577zm-33.304599,7.492902c0.840529,2.623985 5.006417,2.928299 8.327326,0.646048c2.055474,-1.292303 2.055474,-1.938351 0,-3.916081c-1.685509,-1.940722 -2.900581,-1.940722 -5.426618,-0.30452c-1.685509,0.950877 -2.900708,2.585018 -2.900708,3.574553zm-13.329165,22.818173c1.6354,0 2.475929,0.988092 1.6354,2.928505c-0.374671,1.331373 -1.6354,2.623779 -2.48038,2.623779c-1.260729,0 -2.055601,-1.292406 -2.055601,-2.623779c0,-1.596926 1.215072,-2.928505 2.900581,-2.928505z" stroke-width="1.5" fill="#fff" class="xwgdzcdq_2"></path>
  <text font-weight="normal" xml:space="preserve" text-anchor="start" font-family="'Courier New', Courier, monospace" font-size="32" id="svg_4" y="363.301174" x="252.30773" fill-opacity="null" stroke-opacity="null" stroke-width="0" stroke="#000" fill="#000000">Tree</text>
 </g>
<style data-made-with="vivus-instant">.xwgdzcdq_0{stroke-dasharray:1968 1970;stroke-dashoffset:1969;animation:xwgdzcdq_draw_0 7200ms linear 0ms infinite,xwgdzcdq_fade 7200ms linear 0ms infinite;}.xwgdzcdq_1{stroke-dasharray:400 402;stroke-dashoffset:401;animation:xwgdzcdq_draw_1 7200ms linear 0ms infinite,xwgdzcdq_fade 7200ms linear 0ms infinite;}.xwgdzcdq_2{stroke-dasharray:4091 4093;stroke-dashoffset:4092;animation:xwgdzcdq_draw_2 7200ms linear 0ms infinite,xwgdzcdq_fade 7200ms linear 0ms infinite;}@keyframes xwgdzcdq_draw{100%{stroke-dashoffset:0;}}@keyframes xwgdzcdq_fade{0%{stroke-opacity:1;}94.44444444444444%{stroke-opacity:1;}100%{stroke-opacity:0;}}@keyframes xwgdzcdq_draw_0{11.11111111111111%{stroke-dashoffset: 1969}38.88888888888889%{ stroke-dashoffset: 0;}100%{ stroke-dashoffset: 0;}}@keyframes xwgdzcdq_draw_1{18.055555555555554%{stroke-dashoffset: 401}45.83333333333333%{ stroke-dashoffset: 0;}100%{ stroke-dashoffset: 0;}}@keyframes xwgdzcdq_draw_2{25%{stroke-dashoffset: 4092}52.77777777777778%{ stroke-dashoffset: 0;}100%{ stroke-dashoffset: 0;}}</style></svg>