<?xml version="1.0" standalone="no"?>
<svg
  width="600"
  height="600"
  viewBox="0 0 600 600"
  xmlns="http://www.w3.org/2000/svg"
>
  <g transform="translate(300,300)">
    <path d="M142.6,-182.6C170.3,-146.6,168.4,-88,155.4,-44.7C142.4,-1.4,118.4,26.6,106.3,74.5C94.3,122.5,94.2,190.4,71.4,200.6C48.7,210.8,3.3,163.2,-30.3,130.5C-63.8,97.7,-85.6,79.9,-124.1,52.6C-162.5,25.3,-217.7,-11.4,-211.4,-35.7C-205.2,-59.9,-137.6,-71.7,-92.2,-104.5C-46.7,-137.3,-23.4,-191.2,17,-211.5C57.4,-231.8,114.8,-218.5,142.6,-182.6Z" fill="#00d084" />
  </g>
</svg>
    